<svg width="21" height="21" viewBox="0 0 21 21" fill="none" xmlns="http://www.w3.org/2000/svg">
<path fill-rule="evenodd" clip-rule="evenodd" d="M3.9106 18.5885C3.9106 17.7485 4.5906 17.0685 5.4306 17.0685C6.2606 17.0685 6.9406 17.7485 6.9406 18.5885C6.9406 19.4185 6.2606 20.0985 5.4306 20.0985C4.5906 20.0985 3.9106 19.4185 3.9106 18.5885ZM15.1606 18.5885C15.1606 17.7485 15.8406 17.0685 16.6806 17.0685C17.5106 17.0685 18.1906 17.7485 18.1906 18.5885C18.1906 19.4185 17.5106 20.0985 16.6806 20.0985C15.8406 20.0985 15.1606 19.4185 15.1606 18.5885Z" fill="white"/>
<path fill-rule="evenodd" clip-rule="evenodd" d="M18.1908 4.34899C18.8008 4.34899 19.2008 4.55899 19.6008 5.01899C20.0008 5.47899 20.0708 6.13899 19.9808 6.73799L19.0308 13.298C18.8508 14.559 17.7708 15.488 16.5008 15.488H5.5908C4.2608 15.488 3.1608 14.468 3.0508 13.149L2.1308 2.24799L0.6208 1.98799C0.2208 1.91799 -0.0591997 1.52799 0.0108003 1.12799C0.0808003 0.717995 0.4708 0.447995 0.8808 0.507995L3.2658 0.867995C3.6058 0.928995 3.8558 1.20799 3.8858 1.54799L4.0758 3.78799C4.1058 4.10899 4.3658 4.34899 4.6858 4.34899H18.1908ZM12.1308 9.54799H14.9008C15.3208 9.54799 15.6508 9.20799 15.6508 8.79799C15.6508 8.37799 15.3208 8.04799 14.9008 8.04799H12.1308C11.7108 8.04799 11.3808 8.37799 11.3808 8.79799C11.3808 9.20799 11.7108 9.54799 12.1308 9.54799Z" fill="white"/>
</svg>
