<svg width="16" height="16" viewBox="0 0 16 16" fill="none" xmlns="http://www.w3.org/2000/svg">
<path fill-rule="evenodd" clip-rule="evenodd" d="M8.17401 13.9025C6.72693 13.0119 5.38074 11.9638 4.15953 10.7768C3.30096 9.92196 2.64734 8.87985 2.24873 7.73026C1.53143 5.5002 2.36929 2.94722 4.71408 2.19168C5.94641 1.79496 7.2923 2.0217 8.33073 2.80098C9.36955 2.02265 10.715 1.79599 11.9474 2.19168C14.2922 2.94722 15.1361 5.5002 14.4188 7.73026C14.0201 8.87985 13.3665 9.92196 12.508 10.7768C11.2867 11.9638 9.94055 13.0119 8.49348 13.9025L8.33676 14L8.17401 13.9025Z" fill="#D1D1D1"/>
<path fill-rule="evenodd" clip-rule="evenodd" d="M7.84051 13.9025C6.39344 13.0119 5.04724 11.9638 3.82603 10.7768C2.96746 9.92196 2.31384 8.87985 1.91523 7.73026C1.19793 5.5002 2.03579 2.94722 4.38058 2.19168C5.61291 1.79496 6.9588 2.0217 7.99723 2.80098C9.03606 2.02265 10.3815 1.79599 11.6139 2.19168C13.9587 2.94722 14.8026 5.5002 14.0853 7.73026C13.6866 8.87985 13.033 9.92196 12.1745 10.7768C10.9532 11.9638 9.60706 13.0119 8.15998 13.9025L8.00326 14L7.84051 13.9025Z" fill="#D1D1D1"/>
<path d="M10.4927 4.70201C11.2029 4.92888 11.7075 5.56648 11.7706 6.31667" stroke="white" stroke-width="1.5" stroke-linecap="round" stroke-linejoin="round"/>
<path fill-rule="evenodd" clip-rule="evenodd" d="M7.84051 13.9025C6.39344 13.0119 5.04724 11.9638 3.82603 10.7768C2.96746 9.92196 2.31384 8.87985 1.91523 7.73026C1.19793 5.5002 2.03579 2.94722 4.38058 2.19168C5.61291 1.79496 6.9588 2.0217 7.99723 2.80098C9.03606 2.02265 10.3815 1.79599 11.6139 2.19168C13.9587 2.94722 14.8026 5.5002 14.0853 7.73026C13.6866 8.87985 13.033 9.92196 12.1745 10.7768C10.9532 11.9638 9.60706 13.0119 8.15998 13.9025L8.00326 14L7.84051 13.9025Z" stroke="#D1D1D1" stroke-width="1.5" stroke-linecap="round" stroke-linejoin="round"/>
</svg>
