<svg width="16" height="16" viewBox="0 0 16 16" fill="none" xmlns="http://www.w3.org/2000/svg">
<path fill-rule="evenodd" clip-rule="evenodd" d="M8.17402 13.9025C6.72695 13.0119 5.38076 11.9638 4.15954 10.7768C3.30097 9.92196 2.64735 8.87985 2.24875 7.73026C1.53144 5.5002 2.3693 2.94722 4.71409 2.19168C5.94642 1.79496 7.29231 2.0217 8.33074 2.80098C9.36957 2.02265 10.715 1.79599 11.9474 2.19168C14.2922 2.94722 15.1361 5.5002 14.4188 7.73026C14.0202 8.87985 13.3665 9.92196 12.508 10.7768C11.2868 11.9638 9.94057 13.0119 8.49349 13.9025L8.33677 14L8.17402 13.9025Z" fill="#F16B59"/>
<path fill-rule="evenodd" clip-rule="evenodd" d="M7.84068 13.9025C6.3936 13.0119 5.04741 11.9638 3.8262 10.7768C2.96763 9.92196 2.31401 8.87985 1.9154 7.73026C1.1981 5.5002 2.03596 2.94722 4.38075 2.19168C5.61308 1.79496 6.95897 2.0217 7.9974 2.80098C9.03623 2.02265 10.3816 1.79599 11.614 2.19168C13.9588 2.94722 14.8027 5.5002 14.0854 7.73026C13.6868 8.87985 13.0332 9.92196 12.1746 10.7768C10.9534 11.9638 9.60722 13.0119 8.16015 13.9025L8.00343 14L7.84068 13.9025Z" fill="#F16B59"/>
<path d="M10.4929 4.70201C11.2031 4.92888 11.7077 5.56648 11.7708 6.31667" stroke="white" stroke-width="1.5" stroke-linecap="round" stroke-linejoin="round"/>
<path fill-rule="evenodd" clip-rule="evenodd" d="M7.84068 13.9025C6.3936 13.0119 5.04741 11.9638 3.8262 10.7768C2.96763 9.92196 2.31401 8.87985 1.9154 7.73026C1.1981 5.5002 2.03596 2.94722 4.38075 2.19168C5.61308 1.79496 6.95897 2.0217 7.9974 2.80098C9.03623 2.02265 10.3816 1.79599 11.614 2.19168C13.9588 2.94722 14.8027 5.5002 14.0854 7.73026C13.6868 8.87985 13.0332 9.92196 12.1746 10.7768C10.9534 11.9638 9.60722 13.0119 8.16015 13.9025L8.00343 14L7.84068 13.9025Z" stroke="#F16B59" stroke-width="1.5" stroke-linecap="round" stroke-linejoin="round"/>
</svg>
