<svg width="16" height="14" viewBox="0 0 16 14" fill="none" xmlns="http://www.w3.org/2000/svg">
<path d="M15.0111 1.14468C14.7005 0.842244 14.2039 0.848369 13.9014 1.15899C13.599 1.46959 13.6051 1.96618 13.9157 2.26862C13.9183 2.27118 14.1753 2.56953 14.1508 3.14018C14.1399 3.39221 14.0649 3.76359 13.8244 4.24318C14.0758 4.38268 14.3087 4.55028 14.513 4.75049C14.6979 4.93178 14.8573 5.13799 14.9941 5.36181C15.4385 4.62256 15.6889 3.90221 15.7187 3.20712C15.7738 1.92634 15.0892 1.22081 15.0111 1.14468Z" fill="#F16B59"/>
<path d="M12.0449 4.84276C11.0012 4.84276 9.89256 5.36385 9.28765 6.20679C6.18856 10.5294 3.05284 10.7511 1.40374 10.7511C1.21518 10.7511 1.04609 10.748 0.898964 10.748C0.325245 10.748 0.0800262 10.7919 0.297151 11.2206C0.811557 12.2372 3.15809 13.4817 6.04043 13.4817C8.3619 13.4817 11.0307 12.674 13.3681 10.2893C14.5471 9.08663 14.9824 6.67579 13.7803 5.49716C13.3185 5.04457 12.6942 4.84276 12.0449 4.84276Z" fill="#F16B59"/>
</svg>
