<svg width="24" height="24" viewBox="0 0 24 24" fill="none" xmlns="http://www.w3.org/2000/svg">
<path fill-rule="evenodd" clip-rule="evenodd" d="M4.11108 11.4443C4.11108 7.94657 6.94657 5.11108 10.4443 5.11108C13.9421 5.11108 16.7776 7.94657 16.7776 11.4443C16.7776 14.9421 13.9421 17.7776 10.4443 17.7776C6.94657 17.7776 4.11108 14.9421 4.11108 11.4443ZM10.4443 3C5.78065 3 2 6.78065 2 11.4443C2 16.108 5.78065 19.8886 10.4443 19.8886C12.3957 19.8886 14.1926 19.2267 15.6225 18.1151L19.1982 21.6908C19.6104 22.103 20.2787 22.103 20.691 21.6908C21.1032 21.2786 21.1032 20.6103 20.691 20.1981L17.1152 16.6224C18.2268 15.1924 18.8886 13.3957 18.8886 11.4443C18.8886 6.78065 15.108 3 10.4443 3Z" fill="#D1D1D1"/>
</svg>
